<svg aria-hidden="true" style="width:0;height:0;position:absolute;overflow:hidden" xmlns="http://www.w3.org/2000/svg"><defs><symbol id="icon-loupe"><path d="m31.155 27.076-8.89-8.89a2.865 2.865 0 0 0-2.04-.845c-.391 0-.77.078-1.12.225l-1.193-1.193a9.99 9.99 0 0 0 2.222-6.308c0-2.69-1.047-5.218-2.949-7.12-3.926-3.926-10.314-3.926-14.24 0s-3.926 10.314 0 14.24a10.002 10.002 0 0 0 7.12 2.949 9.99 9.99 0 0 0 6.308-2.222l1.193 1.193c-.147.35-.225.729-.225 1.12 0 .771.3 1.495.845 2.04l8.89 8.89c.562.562 1.301.844 2.04.844s1.477-.281 2.04-.844c.545-.545.845-1.269.845-2.04s-.3-1.495-.845-2.04zm-15.51-11.43c-1.491 1.491-3.472 2.312-5.58 2.312s-4.09-.821-5.581-2.312c-3.077-3.077-3.077-8.084 0-11.161s8.084-3.077 11.161 0c1.491 1.491 2.312 3.473 2.312 5.581s-.821 4.09-2.312 5.58zm4.58 5.58-.5-.5c-.134-.134-.207-.311-.207-.5s.073-.366.207-.5l.001-.001.001-.001a.705.705 0 0 1 1 0l.5.5-1.001 1.001zm9.391 8.39a.709.709 0 0 1-1.001 0l-6.851-6.851 1.001-1.001 6.851 6.851a.709.709 0 0 1 0 1.001z"/></symbol><symbol id="icon-spinner" viewBox="0 0 32 32"><path d="M32 16a15.832 15.832 0 0 0-4.864-11.137 15.717 15.717 0 0 0-5.156-3.302A15.512 15.512 0 0 0 15.999.5 15.335 15.335 0 0 0 5.216 5.216a15.23 15.23 0 0 0-3.193 4.994A15.027 15.027 0 0 0 1 16a14.92 14.92 0 0 0 1.254 5.694A14.84 14.84 0 0 0 5.57 26.43a14.708 14.708 0 0 0 4.832 3.085A14.534 14.534 0 0 0 16 30.5c1.897-.04 3.78-.455 5.502-1.216a14.346 14.346 0 0 0 4.574-3.208 14.213 14.213 0 0 0 2.977-4.67c.407-1.046.684-2.137.829-3.244a2 2 0 0 0 2.111-2.163H32zm-3.178 5.311c-.733 1.663-1.796 3.169-3.099 4.412s-2.844 2.225-4.508 2.868A13.536 13.536 0 0 1 16 29.5a13.328 13.328 0 0 1-9.369-4.131 13.246 13.246 0 0 1-2.76-4.346 13.048 13.048 0 0 1 .231-9.952c.683-1.541 1.672-2.937 2.883-4.088s2.642-2.058 4.184-2.652a12.539 12.539 0 0 1 9.568.231c1.48.658 2.82 1.609 3.926 2.774s1.975 2.54 2.543 4.021c.57 1.481.837 3.064.794 4.641h.007a2 2 0 0 0 1.777 2.155 13.829 13.829 0 0 1-.962 3.156z"/></symbol><symbol id="icon-spinner9" viewBox="0 0 32 32"><path d="M16 0C7.289 0 .204 6.961.005 15.624.19 8.066 5.937 2 13 2c7.18 0 13 6.268 13 14a3 3 0 1 0 6 0c0-8.837-7.163-16-16-16zm0 32c8.711 0 15.796-6.961 15.995-15.624C31.81 23.934 26.063 30 19 30c-7.18 0-13-6.268-13-14a3 3 0 1 0-6 0c0 8.837 7.163 16 16 16z"/></symbol><symbol id="icon-up-arrow" viewBox="0 0 32 32"><path d="M26.783 30.025c-6.297 0-16.915-1.855-18.02-14.153H0L13.896 1.976l13.896 13.896H18.67c-.184 1.375-.451 5.354 2.013 8.414 2.178 2.703 5.945 4.073 11.197 4.073l.119 1.244c-.09.015-2.231.422-5.217.422zM3.027 14.617h6.905l.038.588c.667 10.497 8.443 13.231 15.404 13.537-2.409-.749-4.306-1.979-5.673-3.679-3.387-4.215-2.223-9.72-2.173-9.952l.109-.493h7.128L13.897 3.75 3.027 14.618z"/></symbol></defs></svg>