<svg aria-hidden="true" style="position: absolute; width: 0; height: 0; overflow: hidden;" version="1.1" xmlns="http://www.w3.org/2000/svg" xmlns:xlink="http://www.w3.org/1999/xlink">
<defs>
<symbol id="icon-loupe" >
<path d="M31.155 27.076l-8.89-8.89c-0.545-0.545-1.269-0.845-2.040-0.845-0.391 0-0.77 0.078-1.12 0.225l-1.193-1.193c1.439-1.783 2.222-3.985 2.222-6.308 0-2.69-1.047-5.218-2.949-7.12-3.926-3.926-10.314-3.926-14.24 0s-3.926 10.314 0 14.24c1.902 1.902 4.43 2.949 7.12 2.949 2.323 0 4.525-0.783 6.308-2.222l1.193 1.193c-0.147 0.35-0.225 0.729-0.225 1.12 0 0.771 0.3 1.495 0.845 2.040l8.89 8.89c0.562 0.562 1.301 0.844 2.040 0.844s1.477-0.281 2.040-0.844c0.545-0.545 0.845-1.269 0.845-2.040s-0.3-1.495-0.845-2.040zM15.645 15.646c-1.491 1.491-3.472 2.312-5.58 2.312s-4.090-0.821-5.581-2.312c-3.077-3.077-3.077-8.084 0-11.161s8.084-3.077 11.161 0c1.491 1.491 2.312 3.473 2.312 5.581s-0.821 4.090-2.312 5.58zM20.225 21.226l-0.5-0.5c-0.134-0.134-0.207-0.311-0.207-0.5s0.073-0.366 0.207-0.5c0-0 0-0 0.001-0.001s0-0 0.001-0.001c0.134-0.133 0.311-0.207 0.5-0.207s0.367 0.074 0.5 0.207l0.5 0.5-1.001 1.001zM29.616 29.616c-0.276 0.276-0.725 0.276-1.001 0l-6.851-6.851 1.001-1.001 6.851 6.851c0.276 0.276 0.276 0.725 0 1.001z"></path>
</symbol>
<symbol id="icon-spinner" viewBox="0 0 32 32">
<path d="M32 16c-0.040-2.089-0.493-4.172-1.331-6.077-0.834-1.906-2.046-3.633-3.533-5.060-1.486-1.428-3.248-2.557-5.156-3.302-1.906-0.748-3.956-1.105-5.981-1.061-2.025 0.040-4.042 0.48-5.885 1.292-1.845 0.809-3.517 1.983-4.898 3.424s-2.474 3.147-3.193 4.994c-0.722 1.846-1.067 3.829-1.023 5.79 0.040 1.961 0.468 3.911 1.254 5.694 0.784 1.784 1.921 3.401 3.316 4.736 1.394 1.336 3.046 2.391 4.832 3.085 1.785 0.697 3.701 1.028 5.598 0.985 1.897-0.040 3.78-0.455 5.502-1.216 1.723-0.759 3.285-1.859 4.574-3.208 1.29-1.348 2.308-2.945 2.977-4.67 0.407-1.046 0.684-2.137 0.829-3.244 0.039 0.002 0.078 0.004 0.118 0.004 1.105 0 2-0.895 2-2 0-0.056-0.003-0.112-0.007-0.167h0.007zM28.822 21.311c-0.733 1.663-1.796 3.169-3.099 4.412s-2.844 2.225-4.508 2.868c-1.663 0.646-3.447 0.952-5.215 0.909-1.769-0.041-3.519-0.429-5.119-1.14-1.602-0.708-3.053-1.734-4.25-2.991s-2.141-2.743-2.76-4.346c-0.621-1.603-0.913-3.319-0.871-5.024 0.041-1.705 0.417-3.388 1.102-4.928 0.683-1.541 1.672-2.937 2.883-4.088s2.642-2.058 4.184-2.652c1.542-0.596 3.192-0.875 4.832-0.833 1.641 0.041 3.257 0.404 4.736 1.064 1.48 0.658 2.82 1.609 3.926 2.774s1.975 2.54 2.543 4.021c0.57 1.481 0.837 3.064 0.794 4.641h0.007c-0.005 0.055-0.007 0.11-0.007 0.167 0 1.032 0.781 1.88 1.784 1.988-0.195 1.088-0.517 2.151-0.962 3.156z"></path>
</symbol>
<symbol id="icon-spinner9" viewBox="0 0 32 32">
<path d="M16 0c-8.711 0-15.796 6.961-15.995 15.624 0.185-7.558 5.932-13.624 12.995-13.624 7.18 0 13 6.268 13 14 0 1.657 1.343 3 3 3s3-1.343 3-3c0-8.837-7.163-16-16-16zM16 32c8.711 0 15.796-6.961 15.995-15.624-0.185 7.558-5.932 13.624-12.995 13.624-7.18 0-13-6.268-13-14 0-1.657-1.343-3-3-3s-3 1.343-3 3c0 8.837 7.163 16 16 16z"></path>
</symbol>
<symbol id="icon-up-arrow" viewBox="0 0 32 32">
<path d="M26.783 30.025c-6.297 0-16.915-1.855-18.020-14.153h-8.763l13.896-13.896 13.896 13.896h-9.122c-0.184 1.375-0.451 5.354 2.013 8.414 2.178 2.703 5.945 4.073 11.197 4.073l0.119 1.244c-0.090 0.015-2.231 0.422-5.217 0.422zM3.027 14.617h6.905l0.038 0.588c0.667 10.497 8.443 13.231 15.404 13.537-2.409-0.749-4.306-1.979-5.673-3.679-3.387-4.215-2.223-9.72-2.173-9.952l0.109-0.493h7.128l-10.868-10.868-10.87 10.868z"></path>
</symbol>
</defs>
</svg>
